<svg width="2750" height="969" viewBox="0 0 2750 969" fill="none" xmlns="http://www.w3.org/2000/svg">
<rect width="2750" height="969" fill="#ECF0F3"/>
<g clip-path="url(#clip0_980_2)">
<rect x="1901" y="82" width="373" height="810" rx="49" fill="#ECF0F3"/>
<rect x="1901" y="82" width="373" height="810" rx="49" stroke="black" stroke-width="2"/>
<rect x="1940" y="295" width="295" height="295" rx="40" fill="#9CABC2" fill-opacity="0.35"/>
<rect x="1941" y="296" width="293" height="293" rx="39" stroke="#9CABC2" stroke-opacity="0.35" stroke-width="2"/>
<rect x="1941" y="213" width="293" height="33" rx="16.5" fill="#D0D8E2" stroke="black" stroke-width="2"/>
<rect x="2201" y="213" width="33" height="33" rx="16.5" stroke="black" stroke-width="2"/>
<path d="M2216.71 235.707C2216.39 235.389 2216.33 234.909 2216.53 234.531L2211.64 229.636C2211.25 229.246 2211.25 228.612 2211.64 228.222C2212.03 227.831 2212.66 227.831 2213.05 228.222L2217.91 233.086L2222.36 228.636C2222.75 228.246 2223.39 228.246 2223.78 228.636C2224.17 229.027 2224.17 229.66 2223.78 230.05L2218.96 234.87C2218.91 235.025 2218.83 235.171 2218.71 235.293C2218.58 235.415 2218.44 235.499 2218.28 235.544L2218.12 235.707C2217.73 236.098 2217.1 236.098 2216.71 235.707Z" fill="black"/>
<rect x="1967" y="229" width="225" height="3" fill="#9CABC2"/>
<rect x="1945" y="783" width="283" height="58" rx="29" stroke="black" stroke-width="2"/>
<rect x="1944" y="702" width="285" height="60" rx="30" fill="black"/>
<rect x="2376" y="82" width="373" height="810" rx="49" fill="#ECF0F3"/>
<rect x="2376" y="82" width="373" height="810" rx="49" stroke="black" stroke-width="2"/>
<rect x="2415" y="558" width="295" height="295" rx="40" fill="#9CABC2" fill-opacity="0.35"/>
<rect x="2416" y="559" width="293" height="293" rx="39" stroke="#9CABC2" stroke-opacity="0.35" stroke-width="2"/>
<g clip-path="url(#clip1_980_2)">
<rect x="2416" y="211" width="293" height="303" rx="17" fill="#9CABC2" fill-opacity="0.35" stroke="black" stroke-width="2"/>
<rect x="2446" y="259" width="225" height="3" fill="#9CABC2"/>
<rect x="2446" y="276" width="225" height="3" fill="#9CABC2"/>
<rect x="2446" y="293" width="225" height="3" fill="#9CABC2"/>
<rect x="2446" y="310" width="225" height="3" fill="#9CABC2"/>
<rect x="2446" y="327" width="225" height="3" fill="#9CABC2"/>
<rect x="2446" y="344" width="225" height="3" fill="#9CABC2"/>
<rect x="2446" y="361" width="225" height="3" fill="#9CABC2"/>
<rect x="2446" y="378" width="225" height="3" fill="#9CABC2"/>
<rect x="2446" y="395" width="225" height="3" fill="#9CABC2"/>
<rect x="2446" y="412" width="225" height="3" fill="#9CABC2"/>
<rect x="2446" y="429" width="225" height="3" fill="#9CABC2"/>
<rect x="2446" y="446" width="225" height="3" fill="#9CABC2"/>
<rect x="2446" y="463" width="225" height="3" fill="#9CABC2"/>
<rect x="2446" y="480" width="225" height="3" fill="#9CABC2"/>
<rect x="2446" y="497" width="225" height="3" fill="#9CABC2"/>
</g>
<rect x="2416" y="212" width="293" height="33" rx="16.5" fill="#D0D8E2" stroke="black" stroke-width="2"/>
<rect x="2676" y="212" width="33" height="33" rx="16.5" stroke="black" stroke-width="2"/>
<path d="M2691.71 234.707C2691.39 234.389 2691.33 233.909 2691.53 233.531L2686.64 228.636C2686.25 228.246 2686.25 227.612 2686.64 227.222C2687.03 226.831 2687.66 226.831 2688.05 227.222L2692.91 232.086L2697.36 227.636C2697.75 227.246 2698.39 227.246 2698.78 227.636C2699.17 228.027 2699.17 228.66 2698.78 229.05L2693.96 233.87C2693.91 234.025 2693.83 234.171 2693.71 234.293C2693.58 234.415 2693.44 234.499 2693.28 234.544L2693.12 234.707C2692.73 235.098 2692.1 235.098 2691.71 234.707Z" fill="black"/>
<rect x="2442" y="228" width="225" height="3" fill="#9CABC2"/>
<rect x="1426" y="82" width="373" height="810" rx="49" fill="#ECF0F3"/>
<rect x="1426" y="82" width="373" height="810" rx="49" stroke="black" stroke-width="2"/>
<rect x="1465" y="295" width="295" height="295" rx="40" fill="#9CABC2" fill-opacity="0.35"/>
<rect x="1466" y="296" width="293" height="293" rx="39" stroke="#9CABC2" stroke-opacity="0.35" stroke-width="2"/>
<rect opacity="0.5" x="1513" y="213" width="200" height="15" fill="black"/>
<rect opacity="0.5" x="1470" y="251" width="285" height="8" fill="black"/>
<rect opacity="0.5" x="1513" y="359" width="200" height="15" fill="black"/>
<rect opacity="0.5" x="1470" y="467" width="285" height="40" fill="black"/>
<rect x="1471" y="623" width="283" height="58" rx="9" stroke="black" stroke-width="2"/>
<rect opacity="0.5" x="1530" y="650.8" width="165" height="3.6" fill="black"/>
<rect x="1471" y="780" width="283" height="58" rx="29" fill="#9CABC2" fill-opacity="0.35" stroke="black" stroke-width="2"/>
<path d="M1491.5 124C1508.96 124 1523 137.944 1523 155C1523 172.056 1508.96 186 1491.5 186C1474.04 186 1460 172.056 1460 155C1460 137.944 1474.04 124 1491.5 124Z" stroke="#9CABC2" stroke-opacity="0.35" stroke-width="10"/>
<mask id="path-44-inside-1_980_2" fill="white">
<path d="M1491.2 124.051C1491.2 126.794 1488.97 128.978 1486.28 129.504C1474.06 131.892 1465 142.496 1465 155C1465 167.504 1474.06 178.107 1486.28 180.495C1488.97 181.021 1491.2 183.205 1491.2 185.949C1491.2 188.73 1488.92 191.013 1486.17 190.616C1468.54 188.071 1455 173.096 1455 155C1455 136.904 1468.54 121.929 1486.17 119.384C1488.92 118.987 1491.2 121.27 1491.2 124.051Z"/>
</mask>
<path d="M1491.2 124.051C1491.2 126.794 1488.97 128.978 1486.28 129.504C1474.06 131.892 1465 142.496 1465 155C1465 167.504 1474.06 178.107 1486.28 180.495C1488.97 181.021 1491.2 183.205 1491.2 185.949C1491.2 188.73 1488.92 191.013 1486.17 190.616C1468.54 188.071 1455 173.096 1455 155C1455 136.904 1468.54 121.929 1486.17 119.384C1488.92 118.987 1491.2 121.27 1491.2 124.051Z" fill="#ECF0F3"/>
<path d="M1465 155H1463V155L1465 155ZM1455 155H1453V155L1455 155ZM1486.17 190.616L1485.88 192.595L1486.17 190.616ZM1486.28 180.495L1486.66 178.532L1486.28 180.495ZM1486.28 129.504L1485.89 127.541C1472.77 130.106 1463 141.505 1463 155H1465H1467C1467 143.487 1475.35 133.678 1486.66 131.467L1486.28 129.504ZM1465 155L1463 155C1463 168.495 1472.77 179.893 1485.89 182.458L1486.28 180.495L1486.66 178.532C1475.35 176.321 1467 166.513 1467 155H1465ZM1486.17 190.616L1486.45 188.636C1469.77 186.228 1457 172.066 1457 155H1455L1453 155C1453 174.125 1467.3 189.913 1485.88 192.595L1486.17 190.616ZM1455 155H1457C1457 137.933 1469.77 123.772 1486.45 121.364L1486.17 119.384L1485.88 117.405C1467.3 120.087 1453 135.875 1453 155H1455ZM1491.2 185.949H1489.2C1489.2 187.705 1487.82 188.833 1486.45 188.636L1486.17 190.616L1485.88 192.595C1490.02 193.193 1493.2 189.755 1493.2 185.949H1491.2ZM1486.28 180.495L1485.89 182.458C1487.87 182.845 1489.2 184.373 1489.2 185.949H1491.2H1493.2C1493.2 182.037 1490.07 179.198 1486.66 178.532L1486.28 180.495ZM1486.17 119.384L1486.45 121.364C1487.82 121.167 1489.2 122.295 1489.2 124.051H1491.2H1493.2C1493.2 120.245 1490.02 116.807 1485.88 117.405L1486.17 119.384ZM1486.28 129.504L1486.66 131.467C1490.07 130.801 1493.2 127.962 1493.2 124.051H1491.2H1489.2C1489.2 125.626 1487.87 127.155 1485.89 127.541L1486.28 129.504Z" fill="black" mask="url(#path-44-inside-1_980_2)"/>
<ellipse cx="1491.5" cy="155.893" rx="0.301653" ry="0.297521" fill="black"/>
<ellipse cx="1491.5" cy="154.107" rx="0.301653" ry="0.297521" fill="black"/>
<path d="M1504.77 153.025C1505.9 153.025 1506.79 153.922 1506.79 155C1506.79 156.078 1505.9 156.975 1504.77 156.975C1503.65 156.975 1502.76 156.078 1502.76 155C1502.76 153.922 1503.65 153.025 1504.77 153.025Z" stroke="black" stroke-width="2"/>
<path d="M1496.93 153.025C1498.06 153.025 1498.95 153.922 1498.95 155C1498.95 156.078 1498.06 156.975 1496.93 156.975C1495.8 156.975 1494.91 156.078 1494.91 155C1494.91 153.922 1495.8 153.025 1496.93 153.025Z" stroke="black" stroke-width="2"/>
<path d="M1486.07 153.025C1487.2 153.025 1488.09 153.922 1488.09 155C1488.09 156.078 1487.2 156.975 1486.07 156.975C1484.94 156.975 1484.05 156.078 1484.05 155C1484.05 153.922 1484.94 153.025 1486.07 153.025Z" stroke="black" stroke-width="2"/>
<path d="M1478.53 153.025C1479.66 153.025 1480.55 153.922 1480.55 155C1480.55 156.078 1479.66 156.975 1478.53 156.975C1477.4 156.975 1476.51 156.078 1476.51 155C1476.51 153.922 1477.4 153.025 1478.53 153.025Z" stroke="black" stroke-width="2"/>
<rect x="951" y="82" width="373" height="810" rx="49" fill="#ECF0F3"/>
<rect x="951" y="82" width="373" height="810" rx="49" stroke="black" stroke-width="2"/>
<rect x="996" y="780" width="283" height="58" rx="29" fill="#9CABC2" fill-opacity="0.35" stroke="black" stroke-width="2"/>
<rect x="988" y="132" width="43" height="43" rx="19" stroke="black" stroke-width="2"/>
<path d="M1019 152C1019.55 152 1020 152.448 1020 153C1020 153.552 1019.55 154 1019 154V153V152ZM998.293 153.707C997.902 153.317 997.902 152.683 998.293 152.293L1004.66 145.929C1005.05 145.538 1005.68 145.538 1006.07 145.929C1006.46 146.319 1006.46 146.953 1006.07 147.343L1000.41 153L1006.07 158.657C1006.46 159.047 1006.46 159.681 1006.07 160.071C1005.68 160.462 1005.05 160.462 1004.66 160.071L998.293 153.707ZM1019 153V154H999V153V152H1019V153Z" fill="black"/>
<rect x="990" y="295" width="295" height="295" rx="40" fill="#9CABC2" fill-opacity="0.35"/>
<rect x="991" y="296" width="293" height="293" rx="39" stroke="#9CABC2" stroke-opacity="0.35" stroke-width="2"/>
<g clip-path="url(#clip2_980_2)">
<g clip-path="url(#clip3_980_2)">
<circle cx="1033" cy="338" r="24" stroke="black" stroke-width="2"/>
<circle cx="1103" cy="338" r="24" stroke="black" stroke-width="2"/>
<circle cx="1173" cy="338" r="24" stroke="black" stroke-width="2"/>
<circle cx="1243" cy="338" r="24" stroke="black" stroke-width="2"/>
</g>
<g clip-path="url(#clip4_980_2)">
<circle cx="1033" cy="408" r="24" stroke="black" stroke-width="2"/>
<circle cx="1103" cy="408" r="24" stroke="black" stroke-width="2"/>
<circle cx="1173" cy="408" r="24" stroke="black" stroke-width="2"/>
<circle cx="1243" cy="408" r="24" stroke="black" stroke-width="2"/>
</g>
<g clip-path="url(#clip5_980_2)">
<circle cx="1033" cy="478" r="24" stroke="black" stroke-width="2"/>
<circle cx="1103" cy="478" r="24" stroke="black" stroke-width="2"/>
<circle cx="1173" cy="478" r="24" stroke="black" stroke-width="2"/>
<circle cx="1243" cy="478" r="24" stroke="black" stroke-width="2"/>
</g>
<g clip-path="url(#clip6_980_2)">
<circle cx="1033" cy="548" r="24" stroke="black" stroke-width="2"/>
<circle cx="1103" cy="548" r="24" stroke="black" stroke-width="2"/>
<circle cx="1173" cy="548" r="24" stroke="black" stroke-width="2"/>
<circle cx="1243" cy="548" r="24" stroke="black" stroke-width="2"/>
</g>
</g>
<circle cx="1138" cy="676" r="49" stroke="black" stroke-width="2"/>
<rect opacity="0.5" x="1038" y="213" width="200" height="15" fill="black"/>
<rect opacity="0.5" x="995" y="251" width="285" height="8" fill="black"/>
<path d="M1051.29 674.707C1051.61 674.389 1052.09 674.33 1052.47 674.531L1057.36 669.636C1057.75 669.245 1058.39 669.246 1058.78 669.636C1059.17 670.027 1059.17 670.66 1058.78 671.05L1053.91 675.914L1058.36 680.364C1058.75 680.755 1058.75 681.388 1058.36 681.778C1057.97 682.169 1057.34 682.169 1056.95 681.778L1052.13 676.958C1051.98 676.913 1051.83 676.829 1051.71 676.707C1051.59 676.585 1051.5 676.439 1051.46 676.284L1051.29 676.121C1050.9 675.731 1050.9 675.098 1051.29 674.707Z" fill="black"/>
<path d="M1221.71 674.707C1221.39 674.389 1220.91 674.33 1220.53 674.531L1215.64 669.636C1215.25 669.245 1214.61 669.246 1214.22 669.636C1213.83 670.027 1213.83 670.66 1214.22 671.05L1219.09 675.914L1214.64 680.364C1214.25 680.755 1214.25 681.388 1214.64 681.778C1215.03 682.169 1215.66 682.169 1216.05 681.778L1220.87 676.958C1221.02 676.913 1221.17 676.829 1221.29 676.707C1221.41 676.585 1221.5 676.439 1221.54 676.284L1221.71 676.121C1222.1 675.731 1222.1 675.098 1221.71 674.707Z" fill="black"/>
<g clip-path="url(#clip7_980_2)">
<rect x="475" y="81" width="375" height="812" rx="50" fill="#ECF0F3"/>
<rect x="536" y="777" width="253" height="58" rx="29" stroke="black" stroke-width="2"/>
<rect x="535" y="696" width="255" height="60" rx="30" fill="black"/>
<rect x="515" y="131" width="295" height="459" rx="40" fill="#9CABC2" fill-opacity="0.35"/>
<rect x="516" y="132" width="293" height="457" rx="39" stroke="#9CABC2" stroke-opacity="0.35" stroke-width="2"/>
<path d="M495 620H830C840.493 620 849 628.507 849 639V870C849 891.539 831.539 909 810 909H515C493.461 909 476 891.539 476 870V639C476 628.507 484.507 620 495 620Z" fill="#ECF0F3"/>
<path d="M495 620H830C840.493 620 849 628.507 849 639V870C849 891.539 831.539 909 810 909H515C493.461 909 476 891.539 476 870V639C476 628.507 484.507 620 495 620Z" stroke="black" stroke-width="2"/>
<rect x="485.5" y="639" width="30" height="38" rx="5" fill="#D0D8E2"/>
<path d="M504.451 667.434H507.527L505.354 664.289C506.789 663.018 507.568 661.062 507.568 658.547V655.949C507.568 651.314 504.902 648.566 500.5 648.566C496.098 648.566 493.432 651.314 493.432 655.949V658.547C493.432 663.168 496.098 665.93 500.5 665.93C501.471 665.93 502.359 665.793 503.139 665.533L504.451 667.434ZM500.5 663.428C497.971 663.428 496.549 661.76 496.549 658.547V656.1C496.549 652.887 497.971 651.232 500.5 651.232C503.029 651.232 504.451 652.887 504.451 656.1V658.547C504.451 659.941 504.191 661.049 503.672 661.855L502.578 660.256H499.502L501.594 663.305C501.266 663.387 500.896 663.428 500.5 663.428Z" fill="black"/>
<rect x="521.5" y="639" width="30" height="38" rx="5" fill="#D0D8E2"/>
<path d="M536.596 656.373L538.879 666.34H541.682L544.717 649.66H541.832L540.93 655.648L540.041 662.334H539.863L537.771 653.475H535.229L533.137 662.334H532.959L532.07 655.648L531.168 649.66H528.283L531.318 666.34H534.121L536.404 656.373H536.596Z" fill="black"/>
<rect x="557.5" y="639" width="30" height="38" rx="5" fill="#D0D8E2"/>
<path d="M578.256 663.742H569.889V659.094H577.777V656.688H569.889V652.244H578.256V649.66H566.744V666.34H578.256V663.742Z" fill="black"/>
<rect x="593.5" y="639" width="30" height="38" rx="5" fill="#D0D8E2"/>
<path d="M608.268 660.064L611.645 666.34H615.172L611.412 659.559C613.477 658.875 614.789 657.057 614.789 654.91C614.789 651.643 612.369 649.66 608.418 649.66H601.828V666.34H604.945V660.064H608.268ZM604.945 652.121H608.062C610.305 652.121 611.617 653.16 611.617 654.924C611.617 656.701 610.291 657.754 607.994 657.754H604.945V652.121Z" fill="black"/>
<rect x="629.5" y="639" width="30" height="38" rx="5" fill="#D0D8E2"/>
<path d="M646.072 666.34V652.244H651.541V649.66H637.459V652.244H642.928V666.34H646.072Z" fill="black"/>
<rect x="665.5" y="639" width="30" height="38" rx="5" fill="#D0D8E2"/>
<path d="M682.072 666.34V659.996L688.17 649.66H684.752L680.609 656.906H680.404L676.248 649.66H672.83L678.928 659.996V666.34H682.072Z" fill="black"/>
<rect x="701.5" y="639" width="30" height="38" rx="5" fill="#D0D8E2"/>
<path d="M716.5 663.804C714.148 663.804 712.809 662.478 712.809 660.112V649.489H709.678V660.29C709.678 664.2 712.221 666.511 716.5 666.511C720.779 666.511 723.322 664.2 723.322 660.29V649.489H720.191V660.112C720.191 662.478 718.852 663.804 716.5 663.804Z" fill="black"/>
<rect x="737.5" y="639" width="30" height="38" rx="5" fill="#D0D8E2"/>
<path d="M757.914 666.34V663.77H754.072V652.217H757.914V649.66H747.086V652.217H750.928V663.77H747.086V666.34H757.914Z" fill="black"/>
<rect x="773.5" y="639" width="30" height="38" rx="5" fill="#D0D8E2"/>
<path d="M795.568 659.299V656.701C795.568 652.066 792.902 649.318 788.5 649.318C784.098 649.318 781.432 652.066 781.432 656.701V659.299C781.432 663.92 784.098 666.682 788.5 666.682C792.902 666.682 795.568 663.92 795.568 659.299ZM788.5 664.016C786.012 664.016 784.604 662.389 784.604 659.271V656.729C784.604 653.598 786.012 651.984 788.5 651.984C790.988 651.984 792.396 653.598 792.396 656.729V659.271C792.396 662.389 790.988 664.016 788.5 664.016Z" fill="black"/>
<rect x="809.5" y="639" width="30" height="38" rx="5" fill="#D0D8E2"/>
<path d="M818.054 649.66V666.34H821.198V660.871H824.534C828.431 660.871 830.946 658.684 830.946 655.279C830.946 651.834 828.485 649.66 824.671 649.66H818.054ZM821.198 652.135H823.878C826.421 652.135 827.761 653.188 827.761 655.266C827.761 657.33 826.421 658.396 823.878 658.396H821.198V652.135Z" fill="black"/>
<rect x="503.5" y="690" width="30" height="38" rx="5" fill="#D0D8E2"/>
<path d="M522.725 717.34H526.088L520.305 700.66H516.682L510.912 717.34H514.057L515.396 713.074H521.398L522.725 717.34ZM518.35 703.723H518.473L520.66 710.723H516.148L518.35 703.723Z" fill="black"/>
<rect x="539.5" y="690" width="30" height="38" rx="5" fill="#D0D8E2"/>
<path d="M547.671 712.732C547.821 715.809 550.419 717.682 554.521 717.682C558.731 717.682 561.329 715.713 561.329 712.486C561.329 709.943 559.771 708.508 556.134 707.77L554.329 707.387C552.142 706.963 551.226 706.266 551.226 705.008C551.226 703.654 552.483 702.82 554.562 702.82C556.544 702.82 557.815 703.695 557.993 705.172H560.987C560.864 702.232 558.308 700.318 554.534 700.318C550.61 700.318 548.095 702.26 548.095 705.295C548.095 707.77 549.722 709.328 553.153 710.039L554.958 710.422C557.282 710.887 558.198 711.557 558.198 712.76C558.198 714.236 556.79 715.18 554.575 715.18C552.292 715.18 550.843 714.277 550.651 712.732H547.671Z" fill="black"/>
<rect x="575.5" y="690" width="30" height="38" rx="5" fill="#D0D8E2"/>
<path d="M583.65 700.66V717.34H589.365C594.656 717.34 597.35 714.496 597.35 708.904C597.35 703.477 594.643 700.66 589.365 700.66H583.65ZM586.795 703.244H588.982C592.469 703.244 594.15 705.09 594.15 708.945C594.15 712.938 592.51 714.742 588.982 714.742H586.795V703.244Z" fill="black"/>
<rect x="611.5" y="690" width="30" height="38" rx="5" fill="#D0D8E2"/>
<path d="M623.875 717.34V710.559H631.531V708.07H623.875V703.244H632.27V700.66H620.73V717.34H623.875Z" fill="black"/>
<rect x="647.5" y="690" width="30" height="38" rx="5" fill="#D0D8E2"/>
<path d="M666.253 711.967C666.253 713.854 664.899 714.988 662.712 714.988C660.087 714.988 658.747 713.512 658.747 710.654V707.346C658.747 704.488 660.087 703.012 662.671 703.012C664.722 703.012 666.157 704.229 666.253 706.088H669.438C669.329 702.506 666.786 700.318 662.739 700.318C658.2 700.318 655.562 702.902 655.562 707.346V710.654C655.562 715.098 658.2 717.682 662.739 717.682C666.745 717.682 669.438 715.453 669.438 712.049V708.562H662.438V710.859H666.253V711.967Z" fill="black"/>
<rect x="683.5" y="690" width="30" height="38" rx="5" fill="#D0D8E2"/>
<path d="M705.008 717.34V700.66H701.918V707.564H695.082V700.66H691.992V717.34H695.082V710.162H701.918V717.34H705.008Z" fill="black"/>
<rect x="719.5" y="690" width="30" height="38" rx="5" fill="#D0D8E2"/>
<path d="M734.473 717.511C738.246 717.511 740.502 715.487 740.502 712.069V700.489H730.74V703.046H737.344V712.028C737.344 713.819 736.305 714.79 734.432 714.79C732.764 714.79 731.588 713.847 731.533 712.425H728.498C728.512 715.501 730.891 717.511 734.473 717.511Z" fill="black"/>
<rect x="755.5" y="690" width="30" height="38" rx="5" fill="#D0D8E2"/>
<path d="M766.467 717.34V712.117L768.23 710.189L773.822 717.34H777.541L770.377 708.029L777.021 700.66H773.617L766.645 708.426H766.467V700.66H763.459V717.34H766.467Z" fill="black"/>
<rect x="791.5" y="690" width="30" height="38" rx="5" fill="#D0D8E2"/>
<path d="M812.297 714.688H803.807V700.66H800.703V717.34H812.297V714.688Z" fill="black"/>
<rect x="485" y="741" width="40.5295" height="38" rx="5" fill="#D0D8E2"/>
<path d="M515.19 758.191C515.88 758.801 515.449 759.941 514.528 759.941H512.897C512.344 759.941 511.897 760.389 511.897 760.941V769.238C511.897 769.79 511.449 770.238 510.897 770.238H499.634C499.082 770.238 498.634 769.79 498.634 769.238V760.941C498.634 760.389 498.186 759.941 497.634 759.941H496.002C495.081 759.941 494.65 758.801 495.34 758.191L504.603 750.013C504.981 749.679 505.549 749.679 505.927 750.013L515.19 758.191Z" fill="#D0D8E2"/>
<path d="M504.603 750.013L503.941 749.263L504.603 750.013ZM495.34 758.191L494.678 757.442L495.34 758.191ZM514.528 759.941V758.941H512.897V759.941V760.941H514.528V759.941ZM511.897 760.941H510.897V769.238H511.897H512.897V760.941H511.897ZM510.897 770.238V769.238H499.634V770.238V771.238H510.897V770.238ZM498.634 769.238H499.634V760.941H498.634H497.634V769.238H498.634ZM497.634 759.941V758.941H496.002V759.941V760.941H497.634V759.941ZM495.34 758.191L496.002 758.941L505.265 750.762L504.603 750.013L503.941 749.263L494.678 757.442L495.34 758.191ZM505.927 750.013L505.265 750.762L514.528 758.941L515.19 758.191L515.851 757.442L506.589 749.263L505.927 750.013ZM504.603 750.013L505.265 750.762V750.762L505.927 750.013L506.589 749.263C505.832 748.595 504.697 748.595 503.941 749.263L504.603 750.013ZM496.002 759.941V758.941V758.941L495.34 758.191L494.678 757.442C493.297 758.661 494.16 760.941 496.002 760.941V759.941ZM498.634 760.941H499.634C499.634 759.836 498.739 758.941 497.634 758.941V759.941V760.941V760.941H498.634ZM499.634 770.238V769.238V769.238H498.634H497.634C497.634 770.342 498.529 771.238 499.634 771.238V770.238ZM511.897 769.238H510.897V769.238V770.238V771.238C512.001 771.238 512.897 770.342 512.897 769.238H511.897ZM512.897 759.941V758.941C511.792 758.941 510.897 759.836 510.897 760.941H511.897H512.897H512.897V759.941ZM514.528 759.941V760.941C516.37 760.941 517.232 758.661 515.851 757.442L515.19 758.191L514.528 758.941V758.941V759.941Z" fill="black"/>
<rect x="539.5" y="741" width="30" height="38" rx="5" fill="#D0D8E2"/>
<path d="M547.924 768.34H561.076V765.742H551.848V765.564L560.871 753.725V751.66H548.197V754.244H556.975V754.436L547.924 766.289V768.34Z" fill="black"/>
<rect x="575.5" y="741" width="30" height="38" rx="5" fill="#D0D8E2"/>
<path d="M582.885 768.34H586.057L590.309 762.338H590.445L594.67 768.34H598.061L592.264 760L598.115 751.66H594.834L590.678 757.812H590.527L586.385 751.66H582.912L588.6 759.945L582.885 768.34Z" fill="black"/>
<rect x="611.5" y="741" width="30" height="38" rx="5" fill="#D0D8E2"/>
<path d="M626.712 765.988C624.114 765.988 622.774 764.498 622.774 761.654V758.346C622.774 755.502 624.114 754.012 626.685 754.012C628.79 754.012 630.212 755.352 630.28 757.43H633.466C633.411 753.574 630.909 751.318 626.726 751.318C622.187 751.318 619.534 753.916 619.534 758.346V761.654C619.534 766.084 622.187 768.682 626.726 768.682C630.827 768.682 633.452 766.398 633.452 762.748H630.28C630.239 764.758 628.886 765.988 626.712 765.988Z" fill="black"/>
<rect x="647.5" y="741" width="30" height="38" rx="5" fill="#D0D8E2"/>
<path d="M662.65 765.277H662.527L658.262 751.66H654.912L660.695 768.34H664.318L670.088 751.66H666.957L662.65 765.277Z" fill="black"/>
<rect x="683.5" y="741" width="30" height="38" rx="5" fill="#D0D8E2"/>
<path d="M698.623 768.34C702.643 768.34 705.09 766.535 705.09 763.609C705.09 761.436 703.354 759.768 700.852 759.59V759.398C702.779 759.125 704.16 757.607 704.16 755.803C704.16 753.205 702.041 751.66 698.486 751.66H691.91V768.34H698.623ZM695 753.984H697.68C699.826 753.984 701.016 754.818 701.016 756.336C701.016 757.785 699.73 758.605 697.447 758.605H695V753.984ZM695 765.975V760.834H697.693C700.414 760.834 701.822 761.682 701.822 763.363C701.822 765.127 700.469 765.975 697.734 765.975H695Z" fill="black"/>
<rect x="719.5" y="741" width="30" height="38" rx="5" fill="#D0D8E2"/>
<path d="M730.809 768.34V756.705H731.014L738.109 768.34H740.939V751.66H738.191V763.227H737.986L730.918 751.66H728.061V768.34H730.809Z" fill="black"/>
<rect x="755.5" y="741" width="30" height="38" rx="5" fill="#D0D8E2"/>
<path d="M766.262 762.611L765.934 755.926H766.166L769.393 764.416H771.607L774.834 755.926H775.066L774.738 762.611V768.34H777.418V751.66H774.068L770.609 761.422H770.404L766.918 751.66H763.582V768.34H766.262V762.611Z" fill="black"/>
<rect x="799.471" y="741" width="40.5295" height="38" rx="5" fill="#D0D8E2"/>
<path d="M816.099 768.826C815.817 768.826 815.548 768.706 815.358 768.497L808.277 760.671C807.933 760.29 807.933 759.71 808.277 759.329L815.358 751.503C815.548 751.294 815.817 751.174 816.099 751.174L830.8 751.174C831.353 751.174 831.8 751.622 831.8 752.174L831.8 767.826C831.8 768.378 831.353 768.826 830.8 768.826L816.099 768.826Z" fill="#D0D8E2"/>
<path d="M818.507 756.077L826.537 764.107M826.537 756.077L818.507 764.107M808.277 760.671L815.358 768.497C815.548 768.706 815.817 768.826 816.099 768.826L830.8 768.826C831.353 768.826 831.8 768.378 831.8 767.826L831.8 752.174C831.8 751.622 831.353 751.174 830.8 751.174L816.099 751.174C815.817 751.174 815.548 751.294 815.358 751.503L808.277 759.329C807.933 759.71 807.933 760.29 808.277 760.671Z" stroke="black" stroke-width="2" stroke-linejoin="round"/>
<rect x="485" y="792" width="58.9766" height="38" rx="5" fill="#D0D8E2"/>
<path d="M503.277 817.799V815.611H498.602V801.201H495.949L491 804.318V806.875L495.73 803.908H495.936V815.611H491.027V817.799H503.277Z" fill="black"/>
<path d="M508.609 806.014V806.082H511.152V806.014C511.152 804.209 512.41 803.02 514.283 803.02C516.156 803.02 517.359 804.086 517.359 805.727C517.359 806.957 516.799 807.832 514.516 810.156L508.746 816.021V817.799H520.285V815.57H512.506V815.365L516.279 811.605C519.123 808.803 520.025 807.354 520.025 805.59C520.025 802.773 517.729 800.859 514.365 800.859C510.988 800.859 508.609 802.979 508.609 806.014Z" fill="black"/>
<path d="M529.596 810.279H531.605C533.834 810.279 535.256 811.387 535.256 813.137C535.256 814.832 533.875 815.912 531.674 815.912C529.637 815.912 528.229 814.859 528.078 813.232H525.535C525.699 816.213 528.16 818.141 531.756 818.141C535.393 818.141 537.977 816.117 537.977 813.26C537.977 811.018 536.582 809.5 534.258 809.213V809.021C536.131 808.611 537.252 807.189 537.252 805.207C537.252 802.637 534.969 800.859 531.688 800.859C528.256 800.859 526.041 802.691 525.877 805.686H528.365C528.516 804.031 529.732 803.006 531.578 803.006C533.438 803.006 534.654 804.004 534.654 805.576C534.654 807.162 533.396 808.242 531.551 808.242H529.596V810.279Z" fill="black"/>
<rect x="557.488" y="792" width="202" height="38" rx="5" fill="#D0D8E2"/>
<rect x="773" y="792" width="67" height="38" rx="5" fill="#D0D8E2"/>
<path d="M802.269 814.712C802.269 817.159 800.724 818.663 798.222 818.663C795.241 818.663 793.696 816.667 793.696 812.825V809.175C793.696 805.347 795.241 803.337 798.194 803.337C800.532 803.337 802.173 804.964 802.282 807.411H805.153C805.058 803.269 802.433 800.726 798.249 800.726C793.546 800.726 790.825 803.829 790.825 809.175V812.825C790.825 818.171 793.546 821.274 798.249 821.274C802.351 821.274 805.153 818.69 805.153 814.876V810.706H797.989V813.003H802.269V814.712Z" fill="black"/>
<path d="M822.175 813.878V811.253C822.175 806.646 819.536 803.925 815.202 803.925C810.868 803.925 808.229 806.646 808.229 811.253V813.878C808.229 818.472 810.868 821.206 815.202 821.206C819.536 821.206 822.175 818.472 822.175 813.878ZM815.202 818.868C812.536 818.868 810.964 817.118 810.964 813.864V811.267C810.964 808.013 812.536 806.263 815.202 806.263C817.868 806.263 819.44 808.013 819.44 811.267V813.864C819.44 817.118 817.868 818.868 815.202 818.868Z" fill="black"/>
<rect width="255" height="60" transform="translate(535 341)" fill="white" fill-opacity="0.97"/>
<rect x="536" y="342" width="253" height="58" rx="9" stroke="black" stroke-width="2"/>
<rect opacity="0.5" x="588.684" y="369.8" width="147.632" height="3.6" fill="black"/>
</g>
<rect x="476" y="82" width="373" height="810" rx="49" stroke="black" stroke-width="2"/>
<rect x="1" y="82" width="373" height="810" rx="49" fill="#ECF0F3"/>
<rect x="1" y="82" width="373" height="810" rx="49" stroke="black" stroke-width="2"/>
<rect x="40" y="131" width="295" height="459" rx="40" fill="#9CABC2" fill-opacity="0.35"/>
<rect x="41" y="132" width="293" height="457" rx="39" stroke="#9CABC2" stroke-opacity="0.35" stroke-width="2"/>
<rect x="46" y="783" width="283" height="58" rx="29" stroke="black" stroke-width="2"/>
<rect x="45" y="702" width="285" height="60" rx="30" fill="black"/>
<rect x="46" y="623" width="283" height="58" rx="9" stroke="black" stroke-width="2"/>
<rect opacity="0.5" x="105" y="650.8" width="165" height="3.6" fill="black"/>
<ellipse cx="2.28273" cy="3" rx="2.28273" ry="3" transform="matrix(-1 0 0 1 1944 732)" fill="black"/>
<path d="M1325 735L1335 729.226V740.774L1325 735ZM1942.1 735V736H1334V735V734H1942.1V735Z" fill="black"/>
<ellipse cx="10.8051" cy="13.5" rx="10.8051" ry="13.5" transform="matrix(-1 0 0 1 2103.81 834.862)" fill="black"/>
<path d="M176 760L181.774 770H170.227L176 760ZM2093.91 850H2094.91V965H2093.91H2092.91V850H2093.91ZM2073.91 985V986H196V985V984H2073.91V985ZM176 965H175V769H176H177V965H176ZM196 985V986C184.402 986 175 976.598 175 965H176H177C177 975.493 185.507 984 196 984V985ZM2093.91 965H2094.91C2094.91 976.598 2085.51 986 2073.91 986V985V984C2084.4 984 2092.91 975.493 2092.91 965H2093.91Z" fill="black"/>
<ellipse cx="2.8883" cy="6.73282" rx="2.8883" ry="6.73282" transform="matrix(1 0 0 -1 2234 237.466)" fill="black"/>
<path d="M2415 371L2405 376.774V365.226L2415 371ZM2236.89 230.733V229.733H2305.94V230.733V231.733H2236.89V230.733ZM2325.94 250.733H2326.94V351H2325.94H2324.94V250.733H2325.94ZM2345.94 371V370H2406V371V372H2345.94V371ZM2325.94 351H2326.94C2326.94 361.493 2335.45 370 2345.94 370V371V372C2334.35 372 2324.94 362.598 2324.94 351H2325.94ZM2305.94 230.733V229.733C2317.54 229.733 2326.94 239.135 2326.94 250.733H2325.94H2324.94C2324.94 240.239 2316.44 231.733 2305.94 231.733V230.733Z" fill="black"/>
<ellipse cx="789.101" cy="374" rx="0.597405" ry="3" fill="black"/>
<path d="M950.5 374L940.5 368.226V379.774L950.5 374ZM789.002 374V375H941.5V374V373H789.002V374Z" fill="black"/>
<ellipse cx="1278.54" cy="813" rx="0.542102" ry="3" fill="black"/>
<path d="M1425 813L1415 807.226V818.774L1425 813ZM1278.45 813V814H1416V813V812H1278.45V813Z" fill="black"/>
<ellipse cx="1753.54" cy="813" rx="0.542102" ry="3" fill="black"/>
<path d="M1900 813L1890 807.226V818.774L1900 813ZM1753.45 813V814H1891V813V812H1753.45V813Z" fill="black"/>
<ellipse cx="4.63027" cy="3" rx="4.63027" ry="3" transform="matrix(1 0 0 -1 328 819)" fill="black"/>
<path d="M950 701L940 706.774V695.226L950 701ZM332.63 816V815H621.315V816V817H332.63V816ZM641.315 796H640.315V721H641.315H642.315V796H641.315ZM661.315 701V700H941V701V702H661.315V701ZM641.315 721H640.315C640.315 709.402 649.717 700 661.315 700V701V702C650.822 702 642.315 710.507 642.315 721H641.315ZM621.315 816V815C631.809 815 640.315 806.493 640.315 796H641.315H642.315C642.315 807.598 632.913 817 621.315 817V816Z" fill="black"/>
<ellipse cx="4.03185" cy="2.34755" rx="4.03185" ry="2.34755" transform="matrix(1 0 0 -1 328 741)" fill="black"/>
<path d="M539 374L529 379.774V368.227L539 374ZM332.032 738.653V737.653H415.516V738.653V739.653H332.032V738.653ZM435.516 718.653H434.516V394H435.516H436.516V718.653H435.516ZM455.516 374V373H530V374V375H455.516V374ZM435.516 394H434.516C434.516 382.402 443.918 373 455.516 373V374V375C445.023 375 436.516 383.507 436.516 394H435.516ZM415.516 738.653V737.653C426.009 737.653 434.516 729.146 434.516 718.653H435.516H436.516C436.516 730.251 427.114 739.653 415.516 739.653V738.653Z" fill="black"/>
</g>
<defs>
<clipPath id="clip0_980_2">
<rect width="2750" height="969" fill="white"/>
</clipPath>
<clipPath id="clip1_980_2">
<rect width="295" height="305" fill="white" transform="translate(2415 210)"/>
</clipPath>
<clipPath id="clip2_980_2">
<rect width="260" height="260" fill="white" transform="translate(1008 313)"/>
</clipPath>
<clipPath id="clip3_980_2">
<rect width="260" height="50" fill="white" transform="translate(1008 313)"/>
</clipPath>
<clipPath id="clip4_980_2">
<rect width="260" height="50" fill="white" transform="translate(1008 383)"/>
</clipPath>
<clipPath id="clip5_980_2">
<rect width="260" height="50" fill="white" transform="translate(1008 453)"/>
</clipPath>
<clipPath id="clip6_980_2">
<rect width="260" height="50" fill="white" transform="translate(1008 523)"/>
</clipPath>
<clipPath id="clip7_980_2">
<rect x="475" y="81" width="375" height="812" rx="50" fill="white"/>
</clipPath>
</defs>
</svg>
